<?xml version="1.0" encoding="UTF-8" standalone="no"?>
<!DOCTYPE svg PUBLIC "-//W3C//DTD SVG 1.1//EN"
 "http://www.w3.org/Graphics/SVG/1.1/DTD/svg11.dtd">
<!-- Generated by graphviz version 2.38.0 (20140413.2041)
 -->
<!-- Title: models_diagram Pages: 1 -->
<svg width="726pt" height="551pt"
 viewBox="0.00 0.00 726.34 551.00" xmlns="http://www.w3.org/2000/svg" xmlns:xlink="http://www.w3.org/1999/xlink">
<g id="graph0" class="graph" transform="scale(1 1) rotate(0) translate(4 547)">
<title>models_diagram</title>
<polygon fill="none" stroke="none" points="-4,4 -4,-547 722.343,-547 722.343,4 -4,4"/>
<!-- _diagram_info -->
<g id="node1" class="node"><title>_diagram_info</title>
<text text-anchor="start" x="8" y="-446.6" font-family="Times,serif" font-size="13.00">Models diagram</text>
<text text-anchor="start" x="8" y="-432.6" font-family="Times,serif" font-size="13.00">Date: Nov 15 2016 &#45; 21:07</text>
<text text-anchor="start" x="8" y="-418.6" font-family="Times,serif" font-size="13.00">Migration version: 20161115234655</text>
<text text-anchor="start" x="8" y="-404.6" font-family="Times,serif" font-size="13.00">Generated by RailRoady 1.5.2</text>
<text text-anchor="start" x="8" y="-390.6" font-family="Times,serif" font-size="13.00">http://railroady.prestonlee.com</text>
</g>
<!-- User -->
<g id="node2" class="node"><title>User</title>
<path fill="none" stroke="black" d="M244.5,-301.5C244.5,-301.5 533.5,-301.5 533.5,-301.5 539.5,-301.5 545.5,-307.5 545.5,-313.5 545.5,-313.5 545.5,-530.5 545.5,-530.5 545.5,-536.5 539.5,-542.5 533.5,-542.5 533.5,-542.5 244.5,-542.5 244.5,-542.5 238.5,-542.5 232.5,-536.5 232.5,-530.5 232.5,-530.5 232.5,-313.5 232.5,-313.5 232.5,-307.5 238.5,-301.5 244.5,-301.5"/>
<text text-anchor="middle" x="389" y="-527.3" font-family="Times,serif" font-size="14.00">User</text>
<polyline fill="none" stroke="black" points="232.5,-519.5 545.5,-519.5 "/>
<text text-anchor="start" x="240.5" y="-504.3" font-family="Times,serif" font-size="14.00">id :integer</text>
<text text-anchor="start" x="240.5" y="-489.3" font-family="Times,serif" font-size="14.00">email :character varying</text>
<text text-anchor="start" x="240.5" y="-474.3" font-family="Times,serif" font-size="14.00">encrypted_password :character varying</text>
<text text-anchor="start" x="240.5" y="-459.3" font-family="Times,serif" font-size="14.00">reset_password_token :character varying</text>
<text text-anchor="start" x="240.5" y="-444.3" font-family="Times,serif" font-size="14.00">reset_password_sent_at :timestamp without time zone</text>
<text text-anchor="start" x="240.5" y="-429.3" font-family="Times,serif" font-size="14.00">remember_created_at :timestamp without time zone</text>
<text text-anchor="start" x="240.5" y="-414.3" font-family="Times,serif" font-size="14.00">sign_in_count :integer</text>
<text text-anchor="start" x="240.5" y="-399.3" font-family="Times,serif" font-size="14.00">current_sign_in_at :timestamp without time zone</text>
<text text-anchor="start" x="240.5" y="-384.3" font-family="Times,serif" font-size="14.00">last_sign_in_at :timestamp without time zone</text>
<text text-anchor="start" x="240.5" y="-369.3" font-family="Times,serif" font-size="14.00">current_sign_in_ip :inet</text>
<text text-anchor="start" x="240.5" y="-354.3" font-family="Times,serif" font-size="14.00">last_sign_in_ip :inet</text>
<text text-anchor="start" x="240.5" y="-339.3" font-family="Times,serif" font-size="14.00">created_at :timestamp without time zone</text>
<text text-anchor="start" x="240.5" y="-324.3" font-family="Times,serif" font-size="14.00">updated_at :timestamp without time zone</text>
<text text-anchor="start" x="240.5" y="-309.3" font-family="Times,serif" font-size="14.00">role :integer</text>
</g>
<!-- Caught -->
<g id="node4" class="node"><title>Caught</title>
<path fill="none" stroke="black" d="M279,-0.5C279,-0.5 499,-0.5 499,-0.5 505,-0.5 511,-6.5 511,-12.5 511,-12.5 511,-109.5 511,-109.5 511,-115.5 505,-121.5 499,-121.5 499,-121.5 279,-121.5 279,-121.5 273,-121.5 267,-115.5 267,-109.5 267,-109.5 267,-12.5 267,-12.5 267,-6.5 273,-0.5 279,-0.5"/>
<text text-anchor="middle" x="389" y="-106.3" font-family="Times,serif" font-size="14.00">Caught</text>
<polyline fill="none" stroke="black" points="267,-98.5 511,-98.5 "/>
<text text-anchor="start" x="275" y="-83.3" font-family="Times,serif" font-size="14.00">id :integer</text>
<text text-anchor="start" x="275" y="-68.3" font-family="Times,serif" font-size="14.00">user_id :integer</text>
<text text-anchor="start" x="275" y="-53.3" font-family="Times,serif" font-size="14.00">pokemon_id :integer</text>
<text text-anchor="start" x="275" y="-38.3" font-family="Times,serif" font-size="14.00">pokelevel :integer</text>
<text text-anchor="start" x="275" y="-23.3" font-family="Times,serif" font-size="14.00">created_at :timestamp without time zone</text>
<text text-anchor="start" x="275" y="-8.3" font-family="Times,serif" font-size="14.00">updated_at :timestamp without time zone</text>
</g>
<!-- User&#45;&gt;Caught -->
<g id="edge1" class="edge"><title>User&#45;&gt;Caught</title>
<path fill="none" stroke="#4daec4" d="M337.339,-293.204C326.356,-250.024 321.186,-201.698 333,-158 335.485,-148.807 339.094,-139.59 343.3,-130.701"/>
<ellipse fill="none" stroke="#4daec4" cx="338.431" cy="-297.337" rx="4.00001" ry="4.00001"/>
<polygon fill="#4daec4" stroke="#4daec4" points="343.396,-130.51 351.901,-123.587 345.637,-126.04 347.878,-121.57 347.878,-121.57 347.878,-121.57 345.637,-126.04 343.855,-119.553 343.396,-130.51 343.396,-130.51"/>
</g>
<!-- Pokemon -->
<g id="node5" class="node"><title>Pokemon</title>
<path fill="none" stroke="black" d="M354,-158.5C354,-158.5 574,-158.5 574,-158.5 580,-158.5 586,-164.5 586,-170.5 586,-170.5 586,-252.5 586,-252.5 586,-258.5 580,-264.5 574,-264.5 574,-264.5 354,-264.5 354,-264.5 348,-264.5 342,-258.5 342,-252.5 342,-252.5 342,-170.5 342,-170.5 342,-164.5 348,-158.5 354,-158.5"/>
<text text-anchor="middle" x="464" y="-249.3" font-family="Times,serif" font-size="14.00">Pokemon</text>
<polyline fill="none" stroke="black" points="342,-241.5 586,-241.5 "/>
<text text-anchor="start" x="350" y="-226.3" font-family="Times,serif" font-size="14.00">id :integer</text>
<text text-anchor="start" x="350" y="-211.3" font-family="Times,serif" font-size="14.00">name :character varying</text>
<text text-anchor="start" x="350" y="-196.3" font-family="Times,serif" font-size="14.00">description :text</text>
<text text-anchor="start" x="350" y="-181.3" font-family="Times,serif" font-size="14.00">created_at :timestamp without time zone</text>
<text text-anchor="start" x="350" y="-166.3" font-family="Times,serif" font-size="14.00">updated_at :timestamp without time zone</text>
</g>
<!-- User&#45;&gt;Pokemon -->
<g id="edge2" class="edge"><title>User&#45;&gt;Pokemon</title>
<path fill="none" stroke="#d4a909" d="M435.487,-291.767C437.594,-285.908 439.662,-280.16 441.66,-274.605"/>
<polygon fill="#d4a909" stroke="#d4a909" points="435.469,-291.815 427.85,-299.702 433.777,-296.52 432.084,-301.225 432.084,-301.225 432.084,-301.225 433.777,-296.52 436.319,-302.748 435.469,-291.815 435.469,-291.815"/>
<polygon fill="#d4a909" stroke="#d4a909" points="441.792,-274.239 449.411,-266.353 443.484,-269.534 445.176,-264.83 445.176,-264.83 445.176,-264.83 443.484,-269.534 440.942,-263.306 441.792,-274.239 441.792,-274.239"/>
</g>
<!-- ApplicationRecord -->
<g id="node3" class="node"><title>ApplicationRecord</title>
<ellipse fill="none" stroke="black" cx="641" cy="-422" rx="77.1866" ry="18"/>
<text text-anchor="middle" x="641" y="-418.3" font-family="Times,serif" font-size="14.00">ApplicationRecord</text>
</g>
<!-- Pokemon&#45;&gt;Caught -->
<g id="edge3" class="edge"><title>Pokemon&#45;&gt;Caught</title>
<path fill="none" stroke="#d1c2cf" d="M433.889,-150.881C430.556,-144.281 427.142,-137.521 423.758,-130.82"/>
<ellipse fill="none" stroke="#d1c2cf" cx="435.755" cy="-154.574" rx="4.00002" ry="4.00002"/>
<polygon fill="#d1c2cf" stroke="#d1c2cf" points="423.68,-130.666 423.188,-119.711 421.426,-126.203 419.171,-121.74 419.171,-121.74 419.171,-121.74 421.426,-126.203 415.155,-123.768 423.68,-130.666 423.68,-130.666"/>
</g>
</g>
</svg>
