<?xml version="1.0" encoding="UTF-8" standalone="no"?>
<!DOCTYPE svg PUBLIC "-//W3C//DTD SVG 1.1//EN"
 "http://www.w3.org/Graphics/SVG/1.1/DTD/svg11.dtd">
<!-- Generated by graphviz version 2.38.0 (20140413.2041)
 -->
<!-- Title: models_diagram Pages: 1 -->
<svg width="726pt" height="465pt"
 viewBox="0.00 0.00 726.34 465.00" xmlns="http://www.w3.org/2000/svg" xmlns:xlink="http://www.w3.org/1999/xlink">
<g id="graph0" class="graph" transform="scale(1 1) rotate(0) translate(4 461)">
<title>models_diagram</title>
<polygon fill="none" stroke="none" points="-4,4 -4,-461 722.343,-461 722.343,4 -4,4"/>
<!-- _diagram_info -->
<g id="node1" class="node"><title>_diagram_info</title>
<text text-anchor="start" x="8" y="-360.6" font-family="Times,serif" font-size="13.00">Models diagram</text>
<text text-anchor="start" x="8" y="-346.6" font-family="Times,serif" font-size="13.00">Date: Nov 15 2016 &#45; 20:55</text>
<text text-anchor="start" x="8" y="-332.6" font-family="Times,serif" font-size="13.00">Migration version: 20161115225927</text>
<text text-anchor="start" x="8" y="-318.6" font-family="Times,serif" font-size="13.00">Generated by RailRoady 1.5.2</text>
<text text-anchor="start" x="8" y="-304.6" font-family="Times,serif" font-size="13.00">http://railroady.prestonlee.com</text>
</g>
<!-- User -->
<g id="node2" class="node"><title>User</title>
<path fill="none" stroke="black" d="M244.5,-215.5C244.5,-215.5 533.5,-215.5 533.5,-215.5 539.5,-215.5 545.5,-221.5 545.5,-227.5 545.5,-227.5 545.5,-444.5 545.5,-444.5 545.5,-450.5 539.5,-456.5 533.5,-456.5 533.5,-456.5 244.5,-456.5 244.5,-456.5 238.5,-456.5 232.5,-450.5 232.5,-444.5 232.5,-444.5 232.5,-227.5 232.5,-227.5 232.5,-221.5 238.5,-215.5 244.5,-215.5"/>
<text text-anchor="middle" x="389" y="-441.3" font-family="Times,serif" font-size="14.00">User</text>
<polyline fill="none" stroke="black" points="232.5,-433.5 545.5,-433.5 "/>
<text text-anchor="start" x="240.5" y="-418.3" font-family="Times,serif" font-size="14.00">id :integer</text>
<text text-anchor="start" x="240.5" y="-403.3" font-family="Times,serif" font-size="14.00">email :character varying</text>
<text text-anchor="start" x="240.5" y="-388.3" font-family="Times,serif" font-size="14.00">encrypted_password :character varying</text>
<text text-anchor="start" x="240.5" y="-373.3" font-family="Times,serif" font-size="14.00">reset_password_token :character varying</text>
<text text-anchor="start" x="240.5" y="-358.3" font-family="Times,serif" font-size="14.00">reset_password_sent_at :timestamp without time zone</text>
<text text-anchor="start" x="240.5" y="-343.3" font-family="Times,serif" font-size="14.00">remember_created_at :timestamp without time zone</text>
<text text-anchor="start" x="240.5" y="-328.3" font-family="Times,serif" font-size="14.00">sign_in_count :integer</text>
<text text-anchor="start" x="240.5" y="-313.3" font-family="Times,serif" font-size="14.00">current_sign_in_at :timestamp without time zone</text>
<text text-anchor="start" x="240.5" y="-298.3" font-family="Times,serif" font-size="14.00">last_sign_in_at :timestamp without time zone</text>
<text text-anchor="start" x="240.5" y="-283.3" font-family="Times,serif" font-size="14.00">current_sign_in_ip :inet</text>
<text text-anchor="start" x="240.5" y="-268.3" font-family="Times,serif" font-size="14.00">last_sign_in_ip :inet</text>
<text text-anchor="start" x="240.5" y="-253.3" font-family="Times,serif" font-size="14.00">created_at :timestamp without time zone</text>
<text text-anchor="start" x="240.5" y="-238.3" font-family="Times,serif" font-size="14.00">updated_at :timestamp without time zone</text>
<text text-anchor="start" x="240.5" y="-223.3" font-family="Times,serif" font-size="14.00">role :integer</text>
</g>
<!-- Pokemon -->
<g id="node4" class="node"><title>Pokemon</title>
<path fill="none" stroke="black" d="M204,-72.5C204,-72.5 424,-72.5 424,-72.5 430,-72.5 436,-78.5 436,-84.5 436,-84.5 436,-166.5 436,-166.5 436,-172.5 430,-178.5 424,-178.5 424,-178.5 204,-178.5 204,-178.5 198,-178.5 192,-172.5 192,-166.5 192,-166.5 192,-84.5 192,-84.5 192,-78.5 198,-72.5 204,-72.5"/>
<text text-anchor="middle" x="314" y="-163.3" font-family="Times,serif" font-size="14.00">Pokemon</text>
<polyline fill="none" stroke="black" points="192,-155.5 436,-155.5 "/>
<text text-anchor="start" x="200" y="-140.3" font-family="Times,serif" font-size="14.00">id :integer</text>
<text text-anchor="start" x="200" y="-125.3" font-family="Times,serif" font-size="14.00">name :character varying</text>
<text text-anchor="start" x="200" y="-110.3" font-family="Times,serif" font-size="14.00">description :text</text>
<text text-anchor="start" x="200" y="-95.3" font-family="Times,serif" font-size="14.00">created_at :timestamp without time zone</text>
<text text-anchor="start" x="200" y="-80.3" font-family="Times,serif" font-size="14.00">updated_at :timestamp without time zone</text>
</g>
<!-- User&#45;&gt;Pokemon -->
<g id="edge2" class="edge"><title>User&#45;&gt;Pokemon</title>
<path fill="none" stroke="#298a0a" d="M342.513,-205.767C340.406,-199.908 338.338,-194.16 336.34,-188.605"/>
<polygon fill="#298a0a" stroke="#298a0a" points="342.531,-205.815 341.681,-216.748 344.223,-210.52 345.916,-215.225 345.916,-215.225 345.916,-215.225 344.223,-210.52 350.15,-213.702 342.531,-205.815 342.531,-205.815"/>
<polygon fill="#298a0a" stroke="#298a0a" points="336.208,-188.239 337.058,-177.306 334.516,-183.534 332.824,-178.83 332.824,-178.83 332.824,-178.83 334.516,-183.534 328.589,-180.353 336.208,-188.239 336.208,-188.239"/>
</g>
<!-- Caught -->
<g id="node5" class="node"><title>Caught</title>
<ellipse fill="none" stroke="black" cx="389" cy="-18" rx="36.2938" ry="18"/>
<text text-anchor="middle" x="389" y="-14.3" font-family="Times,serif" font-size="14.00">Caught</text>
</g>
<!-- User&#45;&gt;Caught -->
<g id="edge1" class="edge"><title>User&#45;&gt;Caught</title>
<path fill="none" stroke="#20ad9d" d="M446.951,-207.545C459.032,-163.453 463.282,-114.474 445,-72 439.391,-58.9687 428.828,-47.6433 418.374,-38.8449"/>
<ellipse fill="none" stroke="#20ad9d" cx="445.794" cy="-211.586" rx="4.00001" ry="4.00001"/>
<polygon fill="#20ad9d" stroke="#20ad9d" points="418.337,-38.8156 413.272,-29.0895 414.411,-35.7192 410.486,-32.6228 410.486,-32.6228 410.486,-32.6228 414.411,-35.7192 407.699,-36.1561 418.337,-38.8156 418.337,-38.8156"/>
</g>
<!-- ApplicationRecord -->
<g id="node3" class="node"><title>ApplicationRecord</title>
<ellipse fill="none" stroke="black" cx="641" cy="-336" rx="77.1866" ry="18"/>
<text text-anchor="middle" x="641" y="-332.3" font-family="Times,serif" font-size="14.00">ApplicationRecord</text>
</g>
<!-- Pokemon&#45;&gt;Caught -->
<g id="edge3" class="edge"><title>Pokemon&#45;&gt;Caught</title>
<path fill="none" stroke="#a95f33" d="M355.775,-65.7362C361.258,-58.0237 366.617,-50.4849 371.376,-43.791"/>
<ellipse fill="none" stroke="#a95f33" cx="353.378" cy="-69.108" rx="4.00002" ry="4.00002"/>
<polygon fill="#a95f33" stroke="#a95f33" points="371.654,-43.3999 381.116,-37.8569 374.551,-39.3248 377.448,-35.2496 377.448,-35.2496 377.448,-35.2496 374.551,-39.3248 373.781,-32.6422 371.654,-43.3999 371.654,-43.3999"/>
</g>
</g>
</svg>
