<?xml version="1.0" encoding="UTF-8" standalone="no"?>
<!DOCTYPE svg PUBLIC "-//W3C//DTD SVG 1.1//EN"
 "http://www.w3.org/Graphics/SVG/1.1/DTD/svg11.dtd">
<!-- Generated by graphviz version 2.38.0 (20140413.2041)
 -->
<!-- Title: models_diagram Pages: 1 -->
<svg width="726pt" height="566pt"
 viewBox="0.00 0.00 726.34 566.00" xmlns="http://www.w3.org/2000/svg" xmlns:xlink="http://www.w3.org/1999/xlink">
<g id="graph0" class="graph" transform="scale(1 1) rotate(0) translate(4 562)">
<title>models_diagram</title>
<polygon fill="none" stroke="none" points="-4,4 -4,-562 722.343,-562 722.343,4 -4,4"/>
<!-- _diagram_info -->
<g id="node1" class="node"><title>_diagram_info</title>
<text text-anchor="start" x="8" y="-454.1" font-family="Times,serif" font-size="13.00">Models diagram</text>
<text text-anchor="start" x="8" y="-440.1" font-family="Times,serif" font-size="13.00">Date: Nov 16 2016 &#45; 16:09</text>
<text text-anchor="start" x="8" y="-426.1" font-family="Times,serif" font-size="13.00">Migration version: 20161116003059</text>
<text text-anchor="start" x="8" y="-412.1" font-family="Times,serif" font-size="13.00">Generated by RailRoady 1.5.2</text>
<text text-anchor="start" x="8" y="-398.1" font-family="Times,serif" font-size="13.00">http://railroady.prestonlee.com</text>
</g>
<!-- User -->
<g id="node2" class="node"><title>User</title>
<path fill="none" stroke="black" d="M244.5,-301.5C244.5,-301.5 533.5,-301.5 533.5,-301.5 539.5,-301.5 545.5,-307.5 545.5,-313.5 545.5,-313.5 545.5,-545.5 545.5,-545.5 545.5,-551.5 539.5,-557.5 533.5,-557.5 533.5,-557.5 244.5,-557.5 244.5,-557.5 238.5,-557.5 232.5,-551.5 232.5,-545.5 232.5,-545.5 232.5,-313.5 232.5,-313.5 232.5,-307.5 238.5,-301.5 244.5,-301.5"/>
<text text-anchor="middle" x="389" y="-542.3" font-family="Times,serif" font-size="14.00">User</text>
<polyline fill="none" stroke="black" points="232.5,-534.5 545.5,-534.5 "/>
<text text-anchor="start" x="240.5" y="-519.3" font-family="Times,serif" font-size="14.00">id :integer</text>
<text text-anchor="start" x="240.5" y="-504.3" font-family="Times,serif" font-size="14.00">email :character varying</text>
<text text-anchor="start" x="240.5" y="-489.3" font-family="Times,serif" font-size="14.00">encrypted_password :character varying</text>
<text text-anchor="start" x="240.5" y="-474.3" font-family="Times,serif" font-size="14.00">reset_password_token :character varying</text>
<text text-anchor="start" x="240.5" y="-459.3" font-family="Times,serif" font-size="14.00">reset_password_sent_at :timestamp without time zone</text>
<text text-anchor="start" x="240.5" y="-444.3" font-family="Times,serif" font-size="14.00">remember_created_at :timestamp without time zone</text>
<text text-anchor="start" x="240.5" y="-429.3" font-family="Times,serif" font-size="14.00">sign_in_count :integer</text>
<text text-anchor="start" x="240.5" y="-414.3" font-family="Times,serif" font-size="14.00">current_sign_in_at :timestamp without time zone</text>
<text text-anchor="start" x="240.5" y="-399.3" font-family="Times,serif" font-size="14.00">last_sign_in_at :timestamp without time zone</text>
<text text-anchor="start" x="240.5" y="-384.3" font-family="Times,serif" font-size="14.00">current_sign_in_ip :inet</text>
<text text-anchor="start" x="240.5" y="-369.3" font-family="Times,serif" font-size="14.00">last_sign_in_ip :inet</text>
<text text-anchor="start" x="240.5" y="-354.3" font-family="Times,serif" font-size="14.00">created_at :timestamp without time zone</text>
<text text-anchor="start" x="240.5" y="-339.3" font-family="Times,serif" font-size="14.00">updated_at :timestamp without time zone</text>
<text text-anchor="start" x="240.5" y="-324.3" font-family="Times,serif" font-size="14.00">role :integer</text>
<text text-anchor="start" x="240.5" y="-309.3" font-family="Times,serif" font-size="14.00">name :character varying</text>
</g>
<!-- Caught -->
<g id="node4" class="node"><title>Caught</title>
<path fill="none" stroke="black" d="M279,-0.5C279,-0.5 499,-0.5 499,-0.5 505,-0.5 511,-6.5 511,-12.5 511,-12.5 511,-109.5 511,-109.5 511,-115.5 505,-121.5 499,-121.5 499,-121.5 279,-121.5 279,-121.5 273,-121.5 267,-115.5 267,-109.5 267,-109.5 267,-12.5 267,-12.5 267,-6.5 273,-0.5 279,-0.5"/>
<text text-anchor="middle" x="389" y="-106.3" font-family="Times,serif" font-size="14.00">Caught</text>
<polyline fill="none" stroke="black" points="267,-98.5 511,-98.5 "/>
<text text-anchor="start" x="275" y="-83.3" font-family="Times,serif" font-size="14.00">id :integer</text>
<text text-anchor="start" x="275" y="-68.3" font-family="Times,serif" font-size="14.00">user_id :integer</text>
<text text-anchor="start" x="275" y="-53.3" font-family="Times,serif" font-size="14.00">pokemon_id :integer</text>
<text text-anchor="start" x="275" y="-38.3" font-family="Times,serif" font-size="14.00">pokelevel :integer</text>
<text text-anchor="start" x="275" y="-23.3" font-family="Times,serif" font-size="14.00">created_at :timestamp without time zone</text>
<text text-anchor="start" x="275" y="-8.3" font-family="Times,serif" font-size="14.00">updated_at :timestamp without time zone</text>
</g>
<!-- User&#45;&gt;Caught -->
<g id="edge1" class="edge"><title>User&#45;&gt;Caught</title>
<path fill="none" stroke="#496793" d="M336.161,-293.7C325.715,-250.132 321.163,-201.783 333,-158 335.485,-148.807 339.094,-139.59 343.3,-130.701"/>
<ellipse fill="none" stroke="#496793" cx="337.136" cy="-297.613" rx="4.00001" ry="4.00001"/>
<polygon fill="#496793" stroke="#496793" points="343.396,-130.51 351.901,-123.587 345.637,-126.04 347.878,-121.57 347.878,-121.57 347.878,-121.57 345.637,-126.04 343.855,-119.553 343.396,-130.51 343.396,-130.51"/>
</g>
<!-- Pokemon -->
<g id="node5" class="node"><title>Pokemon</title>
<path fill="none" stroke="black" d="M354,-158.5C354,-158.5 574,-158.5 574,-158.5 580,-158.5 586,-164.5 586,-170.5 586,-170.5 586,-252.5 586,-252.5 586,-258.5 580,-264.5 574,-264.5 574,-264.5 354,-264.5 354,-264.5 348,-264.5 342,-258.5 342,-252.5 342,-252.5 342,-170.5 342,-170.5 342,-164.5 348,-158.5 354,-158.5"/>
<text text-anchor="middle" x="464" y="-249.3" font-family="Times,serif" font-size="14.00">Pokemon</text>
<polyline fill="none" stroke="black" points="342,-241.5 586,-241.5 "/>
<text text-anchor="start" x="350" y="-226.3" font-family="Times,serif" font-size="14.00">id :integer</text>
<text text-anchor="start" x="350" y="-211.3" font-family="Times,serif" font-size="14.00">name :character varying</text>
<text text-anchor="start" x="350" y="-196.3" font-family="Times,serif" font-size="14.00">description :text</text>
<text text-anchor="start" x="350" y="-181.3" font-family="Times,serif" font-size="14.00">created_at :timestamp without time zone</text>
<text text-anchor="start" x="350" y="-166.3" font-family="Times,serif" font-size="14.00">updated_at :timestamp without time zone</text>
</g>
<!-- User&#45;&gt;Pokemon -->
<g id="edge2" class="edge"><title>User&#45;&gt;Pokemon</title>
<path fill="none" stroke="#8e5758" d="M436.481,-291.756C438.529,-285.855 440.535,-280.078 442.471,-274.502"/>
<polygon fill="#8e5758" stroke="#8e5758" points="436.45,-291.844 428.919,-299.814 434.81,-296.567 433.17,-301.291 433.17,-301.291 433.17,-301.291 434.81,-296.567 437.421,-302.767 436.45,-291.844 436.45,-291.844"/>
<polygon fill="#8e5758" stroke="#8e5758" points="442.595,-274.146 450.126,-266.175 444.235,-269.423 445.875,-264.699 445.875,-264.699 445.875,-264.699 444.235,-269.423 441.624,-263.223 442.595,-274.146 442.595,-274.146"/>
</g>
<!-- ApplicationRecord -->
<g id="node3" class="node"><title>ApplicationRecord</title>
<ellipse fill="none" stroke="black" cx="641" cy="-429.5" rx="77.1866" ry="18"/>
<text text-anchor="middle" x="641" y="-425.8" font-family="Times,serif" font-size="14.00">ApplicationRecord</text>
</g>
<!-- Pokemon&#45;&gt;Caught -->
<g id="edge3" class="edge"><title>Pokemon&#45;&gt;Caught</title>
<path fill="none" stroke="#d33a55" d="M433.889,-150.881C430.556,-144.281 427.142,-137.521 423.758,-130.82"/>
<ellipse fill="none" stroke="#d33a55" cx="435.755" cy="-154.574" rx="4.00002" ry="4.00002"/>
<polygon fill="#d33a55" stroke="#d33a55" points="423.68,-130.666 423.188,-119.711 421.426,-126.203 419.171,-121.74 419.171,-121.74 419.171,-121.74 421.426,-126.203 415.155,-123.768 423.68,-130.666 423.68,-130.666"/>
</g>
</g>
</svg>
